<svg width="512" height="512" viewBox="0 0 512 512" fill="none" xmlns="http://www.w3.org/2000/svg">
<path d="M364.329 148.239L367.799 146.248L364.329 148.239C367.714 154.139 376.428 153.511 378.927 147.18L403.43 85.0892C405.534 79.7568 401.595 74 395.877 74H128.921C125.029 74 121.679 76.761 120.946 80.5889L109.15 142.214C107.74 149.58 116.208 154.723 122.106 150.145L120.093 147.552L122.106 150.145L131.795 142.624C131.816 142.608 131.842 142.599 131.871 142.599H189.657C189.689 142.599 189.702 142.605 189.709 142.608C189.72 142.613 189.735 142.624 189.75 142.642C189.765 142.66 189.772 142.676 189.775 142.686C189.776 142.689 189.777 142.693 189.777 142.702C189.778 142.709 189.777 142.718 189.775 142.731L165.262 278.798C164.222 284.572 169.464 289.49 175.153 288.123L209.265 279.923C209.292 279.916 209.307 279.916 209.311 279.916C209.316 279.916 209.32 279.917 209.324 279.918C209.333 279.921 209.355 279.93 209.379 279.953C209.403 279.975 209.412 279.995 209.414 280.002C209.415 280.005 209.415 280.007 209.416 280.01C209.416 280.013 209.417 280.026 209.411 280.053L180.698 427.319C178.976 436.153 190.74 440.765 195.528 433.211L324.875 229.111C328.676 223.115 323.489 215.506 316.536 216.794L295.443 220.699L274.349 224.605C274.316 224.611 274.299 224.61 274.296 224.609C274.292 224.609 274.29 224.609 274.287 224.608C274.28 224.605 274.257 224.593 274.233 224.565C274.209 224.537 274.202 224.514 274.201 224.509C274.201 224.507 274.201 224.507 274.201 224.504C274.201 224.504 274.201 224.502 274.201 224.499C274.202 224.492 274.205 224.479 274.213 224.458L303.382 142.676C303.398 142.633 303.441 142.599 303.496 142.599H361.023C361.069 142.599 361.108 142.623 361.128 142.658L364.329 148.239Z" fill="#AB8CE0" stroke="black" stroke-width="8"/>
</svg>
